<?xml version="1.0" ?><svg viewBox="0 0 64 64" xmlns="http://www.w3.org/2000/svg"><defs><style>.cls-1{fill:#a2d0ff;}.cls-2{fill:#2e58ff;}</style></defs><title/><g id="message"><rect class="cls-1" height="40" rx="4" width="60" x="2" y="12"/><path class="cls-2" d="M58,10H6a6,6,0,0,0-6,6V48a6,6,0,0,0,6,6H58a6,6,0,0,0,6-6V16A6,6,0,0,0,58,10ZM47.41,34.59a2,2,0,0,0-2.82,2.82L57.17,50H6.83L19.41,37.41a2,2,0,0,0-2.82-2.82L4,47.17V16.08L25.45,32.77a10.73,10.73,0,0,0,13.1,0L60,16.08V47.17ZM7.83,14H56.17L36.09,29.61a6.72,6.72,0,0,1-8.18,0Z"/></g></svg>