<?xml version="1.0" ?><svg viewBox="0 0 64 64" xmlns="http://www.w3.org/2000/svg"><defs><style>.cls-1{fill:#d1e7ff;}.cls-2{fill:#e8f3ff;}.cls-3{fill:#8bc4ff;}.cls-4{fill:#2e58ff;}</style></defs><title/><g id="Unseen"><path class="cls-1" d="M61.44,33.82C55.35,42.33,43.23,47,32,47S8.65,42.33,2.56,33.82a3.26,3.26,0,0,1,0-3.65C8.65,21.61,20.77,16,32,16s23.35,5.61,29.44,14.17A3.24,3.24,0,0,1,61.44,33.82Z"/><circle class="cls-2" cx="32" cy="28" r="12"/><circle class="cls-3" cx="32" cy="28" r="5"/><path class="cls-4" d="M63.07,29c-4.62-6.5-12.44-11.44-21-13.68L45.73,9a2,2,0,1,0-3.46-2l-4.36,7.49C23,12.17,8,19.09.93,29a5.25,5.25,0,0,0,0,6c3.93,5.5,10.43,9.73,18,12l-4.64,8a2,2,0,1,0,3.46,2l5.21-8.94C39.87,51.55,56,44.81,63.06,35A5.24,5.24,0,0,0,63.07,29ZM22,28a10,10,0,0,1,13.48-9.36l-9.92,17A10,10,0,0,1,22,28Zm16.87-7.24c7.59,7.2.31,19.9-9.8,16.8ZM4.19,32.66a1.27,1.27,0,0,1,0-1.33c3.6-5.06,9.65-9.13,16.38-11.39a13.94,13.94,0,0,0,3,19.18L21,43.45C13.9,41.44,7.72,37.6,4.19,32.66Zm55.62,0C53.9,40.92,39.79,47,25.09,44.39L27,41.07C40,46,51.32,31.1,43.43,19.94c6.73,2.26,12.78,6.33,16.38,11.39A1.25,1.25,0,0,1,59.81,32.66Z"/></g></svg>