<?xml version="1.0" ?><svg viewBox="0 0 64 64" xmlns="http://www.w3.org/2000/svg"><defs><style>.cls-1{fill:#8bc4ff;}.cls-2{fill:#2e58ff;}.cls-3{fill:#d1e7ff;}</style></defs><title/><g id="Key"><path class="cls-1" d="M62,30v4a2,2,0,0,1-2,2H58v7a2,2,0,0,1-2,2H52a2,2,0,0,1-2-2V36H44v3a3,3,0,0,1-3,3H39a3,3,0,0,1-3-3V36H31.46a15,15,0,1,1,0-8H60A2,2,0,0,1,62,30Z"/><path class="cls-2" d="M17,49a17,17,0,1,1,15.9-23H60a4,4,0,0,1,4,4v4a4,4,0,0,1-4,4v5a4,4,0,0,1-4,4H52a4,4,0,0,1-4-4V38H46v1a5,5,0,0,1-5,5H39a5,5,0,0,1-5-5V38H32.91A16.89,16.89,0,0,1,17,49Zm0-30A13,13,0,1,0,29.53,35.47,2,2,0,0,1,31.46,34H36a2,2,0,0,1,2,2v3a1,1,0,0,0,1,1h2a1,1,0,0,0,1-1V36a2,2,0,0,1,2-2h6a2,2,0,0,1,2,2v7h4V36a2,2,0,0,1,2-2h2V30H31.46a2,2,0,0,1-1.93-1.47A13,13,0,0,0,17,19Z"/><circle class="cls-3" cx="10" cy="32" r="3"/></g></svg>