<?xml version="1.0" ?><svg viewBox="0 0 64 64" xmlns="http://www.w3.org/2000/svg"><defs><style>.cls-1{fill:#d1e7ff;}.cls-2{fill:#e8f3ff;}.cls-3{fill:#2e58ff;}.cls-4{fill:#8bc4ff;}</style></defs><title/><g id="Eye"><path class="cls-1" d="M61.44,33.82C55.35,42.33,43.23,47,32,47S8.65,42.33,2.56,33.82a3.26,3.26,0,0,1,0-3.65C8.65,21.61,20.77,16,32,16s23.35,5.61,29.44,14.17A3.24,3.24,0,0,1,61.44,33.82Z"/><circle class="cls-2" cx="32" cy="28" r="12"/><path class="cls-3" d="M63.07,29C56.68,20,44.2,14,32,14S7.32,20,.93,29a5.24,5.24,0,0,0,0,6C7,43.5,19.22,49,32,49s25-5.5,31.06-14A5.24,5.24,0,0,0,63.07,29ZM42,28A10,10,0,1,1,32,18,10,10,0,0,1,42,28Zm17.81,4.66C54.53,40,43.35,45,32,45S9.47,40,4.19,32.66a1.27,1.27,0,0,1,0-1.33c3.6-5.06,9.65-9.13,16.38-11.39a14,14,0,1,0,22.86,0c6.73,2.26,12.78,6.33,16.38,11.39A1.25,1.25,0,0,1,59.81,32.66Z"/><circle class="cls-4" cx="32" cy="28" r="5"/></g></svg>